<svg width="360" height="361" viewBox="0 0 360 361" fill="none" xmlns="http://www.w3.org/2000/svg">
<rect width="60" height="60" fill="#2E2E2E"/>
<rect width="60" height="60" fill="#2E2E2E"/>
<rect x="120" width="60" height="60" fill="#2E2E2E"/>
<rect x="120" width="60" height="60" fill="#2E2E2E"/>
<rect x="240" width="60" height="60" fill="#2E2E2E"/>
<rect x="240" width="60" height="60" fill="#2E2E2E"/>
<rect x="60" y="61" width="60" height="60" fill="#2E2E2E"/>
<rect x="60" y="61" width="60" height="60" fill="#2E2E2E"/>
<rect x="180" y="61" width="60" height="60" fill="#2E2E2E"/>
<rect x="180" y="61" width="60" height="60" fill="#2E2E2E"/>
<rect x="300" y="61" width="60" height="60" fill="#2E2E2E"/>
<rect x="300" y="61" width="60" height="60" fill="#2E2E2E"/>
<rect x="60" y="61" width="60" height="60" fill="#2E2E2E"/>
<rect x="60" y="61" width="60" height="60" fill="#2E2E2E"/>
<rect x="180" y="61" width="60" height="60" fill="#2E2E2E"/>
<rect x="180" y="61" width="60" height="60" fill="#2E2E2E"/>
<rect x="300" y="61" width="60" height="60" fill="#2E2E2E"/>
<rect x="300" y="61" width="60" height="60" fill="#2E2E2E"/>
<rect y="121" width="60" height="60" fill="#2E2E2E"/>
<rect y="121" width="60" height="60" fill="#2E2E2E"/>
<rect x="120" y="121" width="60" height="60" fill="#2E2E2E"/>
<rect x="120" y="121" width="60" height="60" fill="#2E2E2E"/>
<rect x="240" y="121" width="60" height="60" fill="#2E2E2E"/>
<rect x="240" y="121" width="60" height="60" fill="#2E2E2E"/>
<rect x="360" y="361" width="60" height="60" transform="rotate(180 360 361)" fill="#2E2E2E"/>
<rect x="360" y="361" width="60" height="60" transform="rotate(180 360 361)" fill="#2E2E2E"/>
<rect x="240" y="361" width="60" height="60" transform="rotate(180 240 361)" fill="#2E2E2E"/>
<rect x="240" y="361" width="60" height="60" transform="rotate(180 240 361)" fill="#2E2E2E"/>
<rect x="120" y="361" width="60" height="60" transform="rotate(180 120 361)" fill="#2E2E2E"/>
<rect x="120" y="361" width="60" height="60" transform="rotate(180 120 361)" fill="#2E2E2E"/>
<rect x="300" y="300" width="60" height="60" transform="rotate(180 300 300)" fill="#2E2E2E"/>
<rect x="300" y="300" width="60" height="60" transform="rotate(180 300 300)" fill="#2E2E2E"/>
<rect x="180" y="300" width="60" height="60" transform="rotate(180 180 300)" fill="#2E2E2E"/>
<rect x="180" y="300" width="60" height="60" transform="rotate(180 180 300)" fill="#2E2E2E"/>
<rect x="60" y="300" width="60" height="60" transform="rotate(180 60 300)" fill="#2E2E2E"/>
<rect x="60" y="300" width="60" height="60" transform="rotate(180 60 300)" fill="#2E2E2E"/>
<rect x="300" y="300" width="60" height="60" transform="rotate(180 300 300)" fill="#2E2E2E"/>
<rect x="300" y="300" width="60" height="60" transform="rotate(180 300 300)" fill="#2E2E2E"/>
<rect x="180" y="300" width="60" height="60" transform="rotate(180 180 300)" fill="#2E2E2E"/>
<rect x="180" y="300" width="60" height="60" transform="rotate(180 180 300)" fill="#2E2E2E"/>
<rect x="60" y="300" width="60" height="60" transform="rotate(180 60 300)" fill="#2E2E2E"/>
<rect x="60" y="300" width="60" height="60" transform="rotate(180 60 300)" fill="#2E2E2E"/>
<rect x="360" y="240" width="60" height="60" transform="rotate(180 360 240)" fill="#2E2E2E"/>
<rect x="360" y="240" width="60" height="60" transform="rotate(180 360 240)" fill="#2E2E2E"/>
<rect x="240" y="240" width="60" height="60" transform="rotate(180 240 240)" fill="#2E2E2E"/>
<rect x="240" y="240" width="60" height="60" transform="rotate(180 240 240)" fill="#2E2E2E"/>
<rect x="120" y="240" width="60" height="60" transform="rotate(180 120 240)" fill="#2E2E2E"/>
<rect x="120" y="240" width="60" height="60" transform="rotate(180 120 240)" fill="#2E2E2E"/>
</svg>
